PathFileType	4	(X/Y/Z)	./resultDataOpenSim/trcMotMarkerGrf/sub09/qtm-12-05.trc
DataRate	CameraRate	NumFrames	NumMarkers	Units	OrigDataRate	OrigDataStartFrame	OrigNumFrames
250.000000	250.000000	7	24	m	250.000000	60	473
Frame#	Time	L.Toe.Tip			R.Toe.Tip			L.Ankle.Lat			R.Ankle.Lat			L.Ankle.Med			R.Ankle.Med			L.Heel			R.Heel			L.Knee.Lat			R.Knee.Lat			L.Knee.Med			R.Knee.Med			L.Thigh.Upper			R.Thigh.Upper			L.ASIS			R.ASIS			V.Sacral			L.Acromium			R.Acromium			C7			L.Elbow			R.Elbow			L.Wrist.Lat			R.Wrist.Lat
		X1	Y1	Z1	X2	Y2	Z2	X3	Y3	Z3	X4	Y4	Z4	X5	Y5	Z5	X6	Y6	Z6	X7	Y7	Z7	X8	Y8	Z8	X9	Y9	Z9	X10	Y10	Z10	X11	Y11	Z11	X12	Y12	Z12	X13	Y13	Z13	X14	Y14	Z14	X15	Y15	Z15	X16	Y16	Z16	X17	Y17	Z17	X18	Y18	Z18	X19	Y19	Z19	X20	Y20	Z20	X21	Y21	Z21	X22	Y22	Z22	X23	Y23	Z23	X24	Y24	Z24

60	0.236	-1.320444	0.086742232	-0.10166132	-0.61551229	0.0390596	0.035241303	-1.3311075	0.23934464	-0.16640249	-0.76186804	0.053814573	0.068345228	-1.3098876	0.23174718	-0.071390069	-0.75470701	0.090984729	-0.023598034	-1.3928114	0.2892973	-0.12577281	-0.83114772	0.031047945	0.020620037	-0.95996559	0.42923873	-0.17543757	-0.71801747	0.50700776	0.12350754	-0.95396156	0.41611169	-0.048246446	-0.73887138	0.4943027	-0.0013813002	-0.94282952	0.8391182	-0.18148867	-0.90490523	0.86310197	0.19219489	-0.85068923	0.92590195	-0.12913616	-0.83640609	0.9500773	0.11122374	-1.0135927	0.99325649	-0.00084713916	-0.8232547	1.3803617	-0.17515109	-0.86178297	1.3975349	0.15201079	-0.90815792	1.4457092	-0.016241024	-0.94943233	1.0259486	-0.23701023	-1.0125467	1.063687	0.22817984	-0.74671146	0.84825432	-0.22098867	-0.88735196	0.82060277	0.24537264
61	0.24	-1.3060871	0.088708752	-0.10310786	-0.61552646	0.039056948	0.035193945	-1.3180037	0.24163546	-0.16623545	-0.76195796	0.053870908	0.068318765	-1.2978489	0.23330295	-0.070758159	-0.75446887	0.090971369	-0.023664024	-1.3803954	0.29080658	-0.12543931	-0.83120511	0.031060523	0.020565569	-0.9467789	0.43001705	-0.17484819	-0.71503923	0.50663446	0.12377438	-0.94090837	0.41684607	-0.047522003	-0.73600722	0.49425061	-0.00069111995	-0.93614339	0.84013403	-0.18130662	-0.89931238	0.86457922	0.192307	-0.84467044	0.92725799	-0.12907856	-0.82973909	0.95144438	0.11131097	-1.0071477	0.9945801	0.0001097097	-0.81757766	1.3816973	-0.17516971	-0.85524635	1.398845	0.1521562	-0.90205829	1.4472329	-0.015892481	-0.94393044	1.0273645	-0.2361624	-1.0056413	1.0646806	0.22887135	-0.74352892	0.8472499	-0.22153539	-0.87837114	0.82233	0.24550416
62	0.244	-1.2915101	0.090360921	-0.10442952	-0.61556299	0.039068891	0.035169536	-1.3047181	0.24356762	-0.1659989	-0.76206151	0.053928831	0.068276799	-1.2857181	0.23466578	-0.070121366	-0.75428065	0.090962311	-0.023717728	-1.3678182	0.29196867	-0.12512864	-0.83126773	0.031072017	0.020498196	-0.93369231	0.43101933	-0.17424945	-0.71229097	0.50624329	0.12412928	-0.92782561	0.41771573	-0.046766409	-0.73317102	0.4941164	-8.0488614e-05	-0.92965281	0.84123081	-0.18117923	-0.89468953	0.86600984	0.19223481	-0.83867663	0.92867552	-0.12898187	-0.82301182	0.95292931	0.11144536	-1.0006471	0.99596294	0.00076970202	-0.81197594	1.3831223	-0.17519298	-0.84876551	1.4002238	0.15231189	-0.89594995	1.4488767	-0.015488371	-0.93850612	1.0288784	-0.23534901	-0.99872112	1.0657636	0.22961127	-0.74037969	0.84635798	-0.22208414	-0.86941461	0.82416734	0.24561999
63	0.248	-1.2767711	0.09171856	-0.1056218	-0.61561958	0.039092075	0.035168413	-1.291299	0.24516649	-0.16569303	-0.76216698	0.053981783	0.068231624	-1.2729482	0.23596252	-0.069701202	-0.75415553	0.090959252	-0.02376759	-1.3550676	0.29282271	-0.12480167	-0.83133392	0.031084082	0.020418534	-0.9206599	0.43223954	-0.17364111	-0.70980602	0.50583959	0.12453153	-0.91470653	0.41872147	-0.04596088	-0.73023571	0.49390783	0.00027244862	-0.92330597	0.84241118	-0.18112106	-0.89110608	0.86736582	0.19194489	-0.83273517	0.93014799	-0.12885207	-0.81631387	0.9544957	0.11161463	-0.99418752	0.99741032	0.0009394137	-0.80644331	1.3846376	-0.17521062	-0.84232405	1.4016696	0.15246764	-0.88981404	1.4505749	-0.015069561	-0.93320644	1.0304913	-0.23462336	-0.99180353	1.06692	0.23038853	-0.7373542	0.84558538	-0.22263621	-0.86048831	0.82612202	0.24571768
64	0.252	-1.2618179	0.092831394	-0.10674338	-0.61569108	0.039119058	0.035189491	-1.2777147	0.24646234	-0.16533627	-0.76227113	0.054020889	0.068203791	-1.259091	0.23719977	-0.069594758	-0.75410868	0.090958027	-0.023825057	-1.3421384	0.29339009	-0.12440389	-0.83140078	0.03109973	0.02033027	-0.90761161	0.43366552	-0.17297805	-0.70752983	0.50544654	0.12493307	-0.9015133	0.41986085	-0.045128822	-0.72730036	0.49365424	0.00046433389	-0.91696363	0.84368102	-0.1811182	-0.88785549	0.86873761	0.19157053	-0.82685266	0.93167532	-0.12868215	-0.80985167	0.95610125	0.11177698	-0.98775189	0.99895064	0.00089557313	-0.80096659	1.386238	-0.17521796	-0.83591028	1.4031817	0.15261797	-0.88367654	1.4522131	-0.014726936	-0.92799238	1.0321986	-0.23397162	-0.98490097	1.0681378	0.23118284	-0.73451469	0.84493134	-0.22319366	-0.85159744	0.82818071	0.24580579
65	0.256	-1.2465184	0.093758982	-0.10788722	-0.6157691	0.039142456	0.035227814	-1.2638999	0.247482	-0.16496258	-0.76237446	0.054043655	0.06820195	-1.2444076	0.23823325	-0.069628076	-0.75413861	0.090957644	-0.023889854	-1.32904	0.2936758	-0.12389268	-0.83146521	0.031121268	0.020236962	-0.89452937	0.43528559	-0.172226	-0.70534069	0.50508693	0.12529398	-0.88818968	0.42113048	-0.044309888	-0.72452696	0.49339454	0.00066636182	-0.91045859	0.84504964	-0.18109905	-0.88388923	0.87026016	0.19133552	-0.82098235	0.93328038	-0.12844631	-0.80390717	0.95769688	0.11188231	-0.98129402	1.0006	0.0010069591	-0.79553436	1.387911	-0.17521413	-0.82952442	1.4047579	0.15276447	-0.87760645	1.4537392	-0.014524421	-0.92269482	1.033997	-0.23324155	-0.97801371	1.0694128	0.23197991	-0.73183465	0.84439242	-0.22374724	-0.84274556	0.83032495	0.24589924
66	0.26	-1.2307799	0.094539811	-0.10909683	-0.61584681	0.039160503	0.035276314	-1.2498853	0.24823699	-0.16457829	-0.76247619	0.054060571	0.068211343	-1.2295722	0.23892572	-0.06955641	-0.75421529	0.090966645	-0.023942111	-1.3157989	0.29367282	-0.12326589	-0.83152591	0.031149143	0.02014063	-0.88150683	0.43708518	-0.1714178	-0.7031509	0.5047827	0.12560533	-0.87475025	0.42253578	-0.043507999	-0.7219459	0.49316099	0.00091637496	-0.90366907	0.84653167	-0.18097658	-0.87872098	0.87197707	0.19135562	-0.8150515	0.93499475	-0.12811667	-0.7986011	0.95924929	0.11192086	-0.97491032	1.002324	0.0012654933	-0.79014175	1.3896447	-0.1752018	-0.82317083	1.4063955	0.15291125	-0.87166005	1.4552197	-0.014437546	-0.9171826	1.0358843	-0.23229009	-0.97113637	1.0707448	0.23277159	-0.72923866	0.8439667	-0.22427782	-0.83393037	0.83255023	0.24600845
